<?xml version="1.0" encoding="UTF-8"?>
<svg width="147px" height="118px" viewBox="0 0 147 118" version="1.1" xmlns="http://www.w3.org/2000/svg" xmlns:xlink="http://www.w3.org/1999/xlink">
    <!-- Generator: Sketch 44 (41411) - http://www.bohemiancoding.com/sketch -->
    <title>LOGO</title>
    <desc>Created with Sketch.</desc>
    <defs></defs>
    <g id="current-flow" stroke="none" stroke-width="1" fill="none" fill-rule="evenodd">
        <g id="Splash" transform="translate(-114.000000, -274.000000)" fill="#FFFFFF">
            <g id="LOGO" transform="translate(101.000000, 253.000000)">
                <text id="⠑⠁⠎⠽-⠝⠁⠵" font-family="AppleBraille, Apple Braille" font-size="60" font-weight="normal" line-spacing="81">
                    <tspan x="4.96875" y="47">⠑⠁⠎⠽ </tspan>
                    <tspan x="25.4765625" y="128">⠝⠁⠵</tspan>
                </text>
                <path d="M20.78,92.5 C25.04,93.58 28.88,92.26 32.48,90.1 C32.78,89.92 32.9,89.02 32.72,88.66 C32.54,88.3 31.88,88.06 31.4,88 C29.72,87.82 28.28,88.72 26.72,89.08 C21.92,90.22 20.66,89.44 19.52,84.64 C19.46,84.46 19.46,84.28 19.4,84.1 C18.56,79.72 19.16,78.88 23.6,78.1 C24.86,77.92 26.18,77.98 27.08,76.96 C27.26,76.72 27.38,76.3 27.32,76 C27.32,75.7 27.08,75.34 26.78,75.22 C25.1,74.38 23.3,75.04 21.5,75.04 C20,75.04 19.46,74.56 19.52,73.18 C19.52,71.74 19.64,70.3 19.94,68.92 C20.3,66.76 20.6,66.52 22.64,66.34 C23.9,66.22 25.16,66.28 26.36,66.04 C26.78,65.98 27.26,65.32 27.38,64.9 C27.56,64.12 27.02,63.46 26.3,63.34 C23.78,63.1 21.32,62.8 18.8,62.8 C17.9,62.74 17.24,63.58 17.12,64.6 C15.92,75.22 14.6,81.94 17.78,89.56 C18.38,90.88 19.28,92.14 20.78,92.5 Z M37.88,93.28 C36.68,93.22 36.56,92.26 36.38,91.36 L36.38,90.64 C36.56,89.44 36.62,88 36.92,86.62 C38.18,80.86 39.56,75.1 40.82,69.34 C41.3,67.42 42.02,65.62 43.28,64.06 C45.32,61.6 47.84,61.84 49.16,64.72 C49.94,66.34 50.48,68.08 50.84,69.82 C52.28,76.48 53.6,83.2 54.98,89.92 C54.98,90.1 55.04,90.28 55.04,90.4 C55.16,91.36 55.16,92.2 54.14,92.68 C53.3,93.1 52.22,92.38 51.86,91 C51.44,89.44 51.14,87.88 50.78,86.26 C50.24,84.1 50.18,83.98 47.9,83.98 C41.06,83.92 40.4,83.26 39.68,90.46 C39.62,91 39.5,91.54 39.32,92.02 C39.08,92.74 38.66,93.34 37.88,93.28 Z M45.8,80.68 L45.8,80.62 L47.96,80.62 C49.1,80.5 49.46,79.78 49.28,78.76 C48.62,75.22 47.84,71.74 47.06,68.2 C46.94,67.72 46.7,67.24 46.04,67.12 C45.38,67.06 45.08,67.48 44.9,67.96 C43.4,71.62 42.74,75.46 42.2,79.36 C42.14,79.96 42.62,80.44 43.1,80.5 C44,80.68 44.9,80.62 45.8,80.68 Z M60.92,92.68 C65.42,94.24 67.82,90.64 67.58,87.52 C67.4,85.54 66.8,83.8 65.96,82.06 C65.06,80.26 64.16,78.4 63.2,76.6 C62.36,74.86 61.94,73 62,71.86 C62.06,70.42 62.12,69.82 62.18,69.22 C62.24,68.86 62.36,68.5 62.42,68.08 C62.84,66.64 63.68,66.22 65.3,66.76 C65.6,66.82 65.9,67.12 66.26,67.18 C67.4,67.36 68.36,66.22 68.12,64.96 C67.76,63.52 66.92,62.68 65.6,62.38 C62.96,61.84 60.14,63.82 59.36,67 C58.4,70.72 58.34,74.44 60.02,77.8 C61.16,80.2 62.36,82.48 63.44,84.88 C64.7,87.76 64.52,88.18 61.52,89.98 C61.22,90.16 60.92,90.46 60.62,90.7 C60.14,91.12 60.38,92.5 60.92,92.68 Z M80.84,93.04 C81.62,92.74 81.8,92.08 81.8,91.3 C81.74,90.82 81.5,90.28 81.44,89.74 C80.96,86.5 81.38,80.08 82.88,77.02 C84.86,73 86.18,68.68 87.8,64.48 C88.22,63.4 87.68,62.14 86.72,61.84 C85.64,61.54 84.98,62.14 84.62,62.98 C83.9,64.84 83.3,66.76 82.64,68.62 C82.04,70.3 81.38,71.98 80.66,73.6 C80.48,74.02 79.88,74.38 79.4,73.78 C78.86,73.12 78.44,72.34 78.02,71.56 L75.2,65.8 C74.78,65.02 74.18,64.36 73.16,64.24 C72.62,64.24 72.2,64.54 71.96,65.02 C71.6,65.74 71.84,66.46 72.14,67.06 C73.58,69.94 74.9,72.88 76.46,75.64 C77.72,77.68 78.26,79.78 78.02,82.24 C77.84,84.34 77.78,89.92 78.8,91.9 C79.22,92.74 79.76,93.46 80.84,93.04 Z M94.16,93.64 C94.58,93.46 95,92.92 95.3,92.44 C95.48,92.14 95.42,91.6 95.36,91.24 C94.52,86.86 94.76,82.42 94.7,77.98 C94.7,77.32 94.7,76.72 94.76,76.06 C94.82,75.76 95.06,75.28 95.3,75.22 C95.54,75.16 95.96,75.46 96.08,75.7 C97.94,79.6 99.62,83.56 101.66,87.28 C102.62,89.14 103.7,91.9 106.1,91 C108.26,90.22 108.38,87.34 108.56,85.06 C108.8,81.1 108.8,77.08 108.68,73.06 C108.56,70.12 108.2,67.18 107.9,64.24 C107.78,63.4 107.42,62.62 106.52,62.62 C105.44,62.62 104.96,63.64 104.96,64.72 C104.9,66.4 105.14,68.08 105.2,69.76 C105.32,73.54 105.5,77.32 105.56,81.16 C105.56,82.3 105.92,83.98 104.48,84.28 C103.52,84.52 103.16,83.14 102.74,82.24 C101,78.34 99.14,74.44 98.06,70.18 C97.52,67.96 96.8,65.74 95.54,63.88 C94.76,62.74 93.02,62.68 92.18,63.76 C91.64,64.42 91.52,65.2 91.52,66.04 C91.52,74.02 91.58,76.3 91.64,88.24 C91.64,89.92 91.94,91.6 92.78,93.04 C93.14,93.7 93.68,93.82 94.16,93.64 Z M113.84,93.28 C112.64,93.22 112.52,92.26 112.34,91.36 L112.34,90.64 C112.52,89.44 112.58,88 112.88,86.62 C114.14,80.86 115.52,75.1 116.78,69.34 C117.26,67.42 117.98,65.62 119.24,64.06 C121.28,61.6 123.8,61.84 125.12,64.72 C125.9,66.34 126.44,68.08 126.8,69.82 C128.24,76.48 129.56,83.2 130.94,89.92 C130.94,90.1 131,90.28 131,90.4 C131.12,91.36 131.12,92.2 130.1,92.68 C129.26,93.1 128.18,92.38 127.82,91 C127.4,89.44 127.1,87.88 126.74,86.26 C126.2,84.1 126.14,83.98 123.86,83.98 C117.02,83.92 116.36,83.26 115.64,90.46 C115.58,91 115.46,91.54 115.28,92.02 C115.04,92.74 114.62,93.34 113.84,93.28 Z M121.76,80.68 L121.76,80.62 L123.92,80.62 C125.06,80.5 125.42,79.78 125.24,78.76 C124.58,75.22 123.8,71.74 123.02,68.2 C122.9,67.72 122.66,67.24 122,67.12 C121.34,67.06 121.04,67.48 120.86,67.96 C119.36,71.62 118.7,75.46 118.16,79.36 C118.1,79.96 118.58,80.44 119.06,80.5 C119.96,80.68 120.86,80.62 121.76,80.68 Z M136.7,93.28 C141.2,93.28 146.18,92.98 149.9,92.98 C150.56,92.74 151.1,92.14 150.98,91.3 C150.98,88.66 140.42,91 140.12,89.26 C139.58,88.54 142.16,85.36 142.58,84.58 C143.96,82.06 145.34,79.54 146.84,77.08 C148.28,74.62 149.96,72.28 151.46,69.88 C152.12,68.8 153.14,66.58 153.56,65.38 C153.86,64.3 153.14,63.16 152.06,62.86 C149.54,62.14 138.5,62.56 138.2,62.56 C137.72,62.62 137.12,62.92 137.24,63.58 C137.3,64.06 137.48,65.32 137.84,65.56 C142.7,65.56 147.98,65.5 148.64,66.22 C149.78,67.9 147.08,70.42 146.3,71.92 C145.7,73 144.86,73.96 144.2,75.04 C141.74,79.42 137.36,85.96 134.96,90.34 C134.12,91.84 134.9,93.16 136.7,93.28 Z" id="easynaz"></path>
            </g>
        </g>
    </g>
</svg>