<?xml version="1.0" encoding="UTF-8"?>
<svg width="45px" height="44px" viewBox="0 0 45 44" version="1.1" xmlns="http://www.w3.org/2000/svg" xmlns:xlink="http://www.w3.org/1999/xlink">
    <!-- Generator: Sketch 44 (41411) - http://www.bohemiancoding.com/sketch -->
    <title>profile</title>
    <desc>Created with Sketch.</desc>
    <defs></defs>
    <g id="icons" stroke="none" stroke-width="1" fill="none" fill-rule="evenodd">
        <g id="Mobile" transform="translate(-266.000000, -51.000000)" fill="#6570D1">
            <g id="buttom_nav" transform="translate(47.000000, 51.000000)">
                <g id="profile" transform="translate(217.000000, 0.000000)">
                    <path d="M24,14 C27.8675,14 31,10.8675 31,7 C31,3.1325 27.8675,0 24,0 C20.1325,0 17,3.1325 17,7 C17,10.8675 20.1325,14 24,14 L24,14 Z M24,17.5 C19.3275,17.5 10,19.845 10,24.5 L10,28 L38,28 L38,24.5 C38,19.845 28.6725,17.5 24,17.5 L24,17.5 Z" id="Shape"></path>
                    <text id="Profile" font-family="OpenSans-Bold, Open Sans" font-size="14" font-weight="bold" line-spacing="20">
                        <tspan x="0" y="43">Profile</tspan>
                    </text>
                </g>
            </g>
        </g>
    </g>
</svg>