<?xml version="1.0" encoding="UTF-8"?>
<svg width="101px" height="28px" viewBox="0 0 101 28" version="1.1" xmlns="http://www.w3.org/2000/svg" xmlns:xlink="http://www.w3.org/1999/xlink">
    <!-- Generator: Sketch 44 (41411) - http://www.bohemiancoding.com/sketch -->
    <title>easynaz_logo</title>
    <desc>Created with Sketch.</desc>
    <defs></defs>
    <g id="current-flow" stroke="none" stroke-width="1" fill="none" fill-rule="evenodd">
        <g id="list_view" transform="translate(-24.000000, -26.000000)">
            <g id="header">
                <rect id="Rectangle-4" fill="#FFFFFF" x="0" y="0" width="375" height="80"></rect>
                <path d="M33.872,51.956 C33.656,51.092 31.892,51.452 31.208,51.452 L27.824,51.488 C27.392,51.488 27.176,51.416 27.032,51.2 C27.068,48.788 27.068,46.376 27.068,43.928 L27.068,40.652 C27.176,40.616 27.284,40.616 27.428,40.616 L29.84,40.616 L32.396,40.58 C32.468,40.544 32.72,40.436 32.72,40.04 C32.72,39.608 32.504,39.536 32.432,39.5 C32.072,39.5 31.604,39.536 31.208,39.536 L28.04,39.5 C27.032,39.5 27.176,38.78 27.176,36.692 L27.176,34.136 L27.14,34.136 L27.14,32.588 C27.14,31.22 27.104,30.068 27.104,29.996 C27.104,29.528 27.032,28.7 27.896,28.7 C28.328,28.7 29.12,28.664 29.732,28.664 C30.272,28.664 32.792,28.952 32.936,28.556 C33.044,28.268 33.152,27.944 33.044,27.656 C32.936,27.404 32.648,27.296 32.396,27.224 C31.856,27.116 30.92,27.044 30.344,27.044 C29.444,27.044 28.544,27.08 27.644,27.08 C27.104,27.008 25.952,27.116 25.628,27.116 C25.268,27.116 25.016,27.044 24.836,27.188 C24.62,27.26 24.44,27.368 24.296,27.548 C24.008,27.98 24.26,28.736 24.296,29.204 C24.404,30.752 24.296,32.3 24.296,33.848 C24.296,36.584 24.296,39.356 24.332,42.092 L24.332,43.46 L24.224,46.844 C24.044,52.028 23.684,53.216 25.592,53.216 L25.844,53.216 C26.096,53.252 26.384,53.252 26.744,53.252 L31.928,53.252 C32.396,53.252 33.404,53.396 33.728,52.964 C33.8,52.856 33.836,52.712 33.872,52.604 C33.908,52.388 33.944,52.172 33.872,51.956 Z M51.188,49.868 C51.188,50.516 51.224,51.164 51.188,51.776 C51.152,52.892 50.54,53.216 49.388,53.216 C47.984,53.216 47.624,52.784 47.516,51.704 C47.516,51.488 47.516,51.308 47.48,51.164 L47.48,50.732 L47.372,44.252 C45.932,44.144 40.136,44.072 39.884,44.612 L39.308,47.672 L39.272,47.708 C38.984,49.436 38.732,50.624 38.552,51.452 L38.552,51.488 C38.156,53 37.832,53.252 37.04,53.252 C36.5,53.252 36.068,53.036 36.104,52.496 C36.104,52.424 36.104,52.352 36.14,52.28 C40.964,29.528 41.792,27.26 45.536,27.26 C49.244,27.26 50.504,32.912 51.188,49.868 Z M47.336,42.884 C47.408,42.884 47.408,42.776 47.336,42.632 L47.264,37.484 C47.192,33.524 46.868,28.664 45.464,28.664 C43.808,28.664 42.512,32.084 41.684,35.504 L40.748,40.328 L40.748,40.364 C40.604,41.156 40.532,41.732 40.532,41.984 C40.532,42.524 40.784,42.776 41.324,42.776 C41.576,42.776 44.312,42.884 47.336,42.884 Z M58.856,53.252 L58.316,53.252 C54.896,53.252 53.348,51.02 53.348,49.544 C53.348,48.356 54.428,47.744 55.184,47.744 C55.688,47.744 56.048,47.996 56.048,48.428 C56.048,48.5 55.976,48.824 55.976,49.076 C55.976,50.336 57.2,51.776 58.748,51.776 C60.368,51.776 61.484,50.12 61.484,46.592 C61.484,39.356 54.248,40.076 54.248,34.028 C54.248,30.248 56.048,27.188 60.332,27.188 C62.096,27.188 64.112,27.872 64.112,29.636 C64.112,30.32 63.824,31.004 63.248,31.436 C63.104,31.58 62.744,31.616 62.456,31.616 C60.728,31.616 62.42,28.664 60.188,28.664 C58.1,28.664 57.236,31.868 57.236,33.668 C57.236,38.96 64.4,38.204 64.4,46.34 C64.4,51.056 61.736,53.252 58.856,53.252 Z M77.54,28.772 C77.792,28.124 78.044,27.764 77.54,27.404 C77.108,27.044 76.1,26.504 75.38,27.152 C74.948,27.512 74.912,28.412 74.768,28.88 C74.264,30.572 73.544,32.228 72.968,33.884 C72.896,34.028 72.86,34.172 72.788,34.316 C72.608,34.892 72.392,35.432 72.212,36.008 C71.996,35.432 71.78,34.892 71.6,34.316 C71.528,34.172 71.492,34.028 71.42,33.884 C70.844,32.228 70.16,30.572 69.656,28.88 C69.476,28.412 69.44,27.512 69.008,27.152 C68.288,26.504 67.316,27.044 66.848,27.404 C66.344,27.764 66.596,28.124 66.848,28.772 C68.144,32.372 69.44,35.972 70.7,39.572 L70.736,39.572 C70.772,39.68 70.772,39.788 70.808,39.86 C70.808,39.932 70.772,40.004 70.772,40.076 C70.844,40.148 70.916,40.256 70.988,40.364 C70.988,41.156 71.024,41.984 71.024,42.776 L70.916,46.664 C70.736,51.848 70.376,53.216 72.284,53.216 C73.184,53.216 73.652,52.856 73.688,51.884 C73.796,48.284 73.76,44.684 73.76,41.048 L73.76,39.392 L77.54,28.772 Z M92.84,41.048 L92.84,28.34 C92.84,27.764 92.984,27.404 92.444,27.152 C91.976,26.936 91.004,26.684 90.608,27.368 C90.356,27.8 90.572,28.556 90.608,29.024 C90.68,30.536 90.608,32.12 90.572,33.668 C90.572,36.692 90.572,39.752 90.644,42.776 C90.608,43.568 90.608,44.396 90.572,45.224 C89.888,43.424 89.204,41.66 88.52,40.004 C86.828,36.116 85.172,32.228 83.48,28.34 C82.832,26.828 80.708,26.756 80.204,27.512 C79.916,27.908 80.168,28.664 80.204,29.132 C80.312,30.644 80.204,32.228 80.204,33.74 C80.204,36.8 80.204,39.824 80.276,42.848 C80.204,44.072 80.168,45.368 80.132,46.664 C79.952,51.848 79.592,53.216 81.5,53.216 C82.4,53.216 82.868,52.856 82.904,51.92 C83.012,48.32 82.976,44.72 82.976,41.12 L82.976,34.208 C82.976,34.244 83.012,34.28 83.012,34.316 C84.236,37.124 85.424,39.932 86.684,42.668 L88.088,46.268 C89.492,49.76 90.068,51.524 90.536,52.352 C90.68,53 91.04,53.216 91.652,53.216 C92.3,53.216 92.66,52.928 92.768,52.244 C92.84,51.956 92.84,51.668 92.804,51.38 C92.876,47.924 92.84,44.504 92.84,41.048 Z M110.084,49.868 C110.084,50.516 110.12,51.164 110.084,51.776 C110.048,52.892 109.436,53.216 108.284,53.216 C106.88,53.216 106.52,52.784 106.412,51.704 C106.412,51.488 106.412,51.308 106.376,51.164 L106.376,50.732 L106.268,44.252 C104.828,44.144 99.032,44.072 98.78,44.612 L98.204,47.672 L98.168,47.708 C97.88,49.436 97.628,50.624 97.448,51.452 L97.448,51.488 C97.052,53 96.728,53.252 95.936,53.252 C95.396,53.252 94.964,53.036 95,52.496 C95,52.424 95,52.352 95.036,52.28 C99.86,29.528 100.688,27.26 104.432,27.26 C108.14,27.26 109.4,32.912 110.084,49.868 Z M106.232,42.884 C106.304,42.884 106.304,42.776 106.232,42.632 L106.16,37.484 C106.088,33.524 105.764,28.664 104.36,28.664 C102.704,28.664 101.408,32.084 100.58,35.504 L99.644,40.328 L99.644,40.364 C99.5,41.156 99.428,41.732 99.428,41.984 C99.428,42.524 99.68,42.776 100.22,42.776 C100.472,42.776 103.208,42.884 106.232,42.884 Z M124.16,52.1 C124.016,51.884 123.692,51.74 123.404,51.668 C122.756,51.56 121.676,51.488 120.992,51.488 C119.948,51.488 118.904,51.524 117.824,51.524 C117.212,51.452 115.88,51.56 115.448,51.56 C115.7,49.94 124.196,29.852 124.196,28.844 C124.196,28.736 124.196,28.628 124.16,28.52 L124.196,28.52 C124.304,27.44 123.8,27.26 122.684,27.116 L122.576,27.116 C122.18,27.116 120.812,27.008 120.164,27.08 C119.12,27.08 118.04,27.044 116.996,27.044 C116.312,27.044 115.232,27.116 114.584,27.224 C114.296,27.296 113.972,27.404 113.828,27.656 C113.684,27.944 113.828,28.268 113.936,28.556 C114.116,28.952 117.104,28.664 117.752,28.664 L117.896,28.664 L120.452,28.808 C120.92,28.844 121.136,29.024 121.136,29.384 C121.136,29.78 120.704,30.428 120.56,30.788 L119.12,34.28 C117.752,37.556 116.42,40.832 115.124,44.108 C114.152,46.592 113.036,49.148 112.352,51.74 C112.208,52.28 112.064,53.108 112.784,53.324 C113.072,53.396 113.396,53.324 113.648,53.252 L118.4,53.252 C119.012,53.288 119.66,53.108 120.308,53.144 C121.028,53.144 123.872,53.396 124.052,53 C124.196,52.712 124.304,52.388 124.16,52.1 Z" id="easynaz_logo" fill="#6570D1"></path>
            </g>
        </g>
    </g>
</svg>