<?xml version="1.0" encoding="UTF-8"?>
<svg width="146px" height="118px" viewBox="0 0 146 118" version="1.1" xmlns="http://www.w3.org/2000/svg" xmlns:xlink="http://www.w3.org/1999/xlink">
    <!-- Generator: Sketch 44 (41411) - http://www.bohemiancoding.com/sketch -->
    <title>LOGO</title>
    <desc>Created with Sketch.</desc>
    <defs></defs>
    <g id="current-flow" stroke="none" stroke-width="1" fill="none" fill-rule="evenodd">
        <g id="Splash" transform="translate(-115.000000, -274.000000)" fill="#FFFFFF">
            <g id="LOGO" transform="translate(101.000000, 253.000000)">
                <path d="M14.8125,24.90625 C14.8125,24.398435 14.9052725,23.9296896 15.0908203,23.5 C15.2763681,23.0703104 15.5351546,22.6943375 15.8671875,22.3720703 C16.1992204,22.0498031 16.5849587,21.7958994 17.0244141,21.6103516 C17.4638694,21.4248038 17.9277319,21.3320312 18.4160156,21.3320312 C18.9238307,21.3320312 19.3974587,21.4248038 19.8369141,21.6103516 C20.2763694,21.7958994 20.6621077,22.0498031 20.9941406,22.3720703 C21.3261735,22.6943375 21.5898428,23.0703104 21.7851562,23.5 C21.9804697,23.9296896 22.078125,24.398435 22.078125,24.90625 C22.078125,25.414065 21.9804697,25.8876931 21.7851562,26.3271484 C21.5898428,26.7666038 21.3261735,27.1523421 20.9941406,27.484375 C20.6621077,27.8164079 20.2763694,28.0800771 19.8369141,28.2753906 C19.3974587,28.4707041 18.9238307,28.5683594 18.4160156,28.5683594 C17.9277319,28.5683594 17.4638694,28.4707041 17.0244141,28.2753906 C16.5849587,28.0800771 16.1992204,27.8164079 15.8671875,27.484375 C15.5351546,27.1523421 15.2763681,26.7666038 15.0908203,26.3271484 C14.9052725,25.8876931 14.8125,25.414065 14.8125,24.90625 Z M28.9335938,39.2324219 C28.9335938,38.7246068 29.031249,38.2509788 29.2265625,37.8115234 C29.421876,37.3720681 29.6855452,36.9912125 30.0175781,36.6689453 C30.349611,36.3466781 30.7402321,36.0927744 31.1894531,35.9072266 C31.6386741,35.7216788 32.1074194,35.6289062 32.5957031,35.6289062 C33.1035182,35.6289062 33.5771462,35.7216788 34.0166016,35.9072266 C34.4560569,36.0927744 34.8369125,36.3466781 35.1591797,36.6689453 C35.4814469,36.9912125 35.7402334,37.3720681 35.9355469,37.8115234 C36.1308604,38.2509788 36.2285156,38.7246068 36.2285156,39.2324219 C36.2285156,39.7402369 36.1308604,40.213865 35.9355469,40.6533203 C35.7402334,41.0927756 35.4814469,41.4736312 35.1591797,41.7958984 C34.8369125,42.1181657 34.4560569,42.3720694 34.0166016,42.5576172 C33.5771462,42.743165 33.1035182,42.8359375 32.5957031,42.8359375 C32.1074194,42.8359375 31.6386741,42.743165 31.1894531,42.5576172 C30.7402321,42.3720694 30.349611,42.1181657 30.0175781,41.7958984 C29.6855452,41.4736312 29.421876,41.0927756 29.2265625,40.6533203 C29.031249,40.213865 28.9335938,39.7402369 28.9335938,39.2324219 Z M55.828125,24.90625 C55.828125,24.398435 55.9208975,23.9296896 56.1064453,23.5 C56.2919931,23.0703104 56.5507796,22.6943375 56.8828125,22.3720703 C57.2148454,22.0498031 57.6005837,21.7958994 58.0400391,21.6103516 C58.4794944,21.4248038 58.9433569,21.3320312 59.4316406,21.3320312 C59.9394557,21.3320312 60.4130837,21.4248038 60.8525391,21.6103516 C61.2919944,21.7958994 61.6777327,22.0498031 62.0097656,22.3720703 C62.3417985,22.6943375 62.6054678,23.0703104 62.8007812,23.5 C62.9960947,23.9296896 63.09375,24.398435 63.09375,24.90625 C63.09375,25.414065 62.9960947,25.8876931 62.8007812,26.3271484 C62.6054678,26.7666038 62.3417985,27.1523421 62.0097656,27.484375 C61.6777327,27.8164079 61.2919944,28.0800771 60.8525391,28.2753906 C60.4130837,28.4707041 59.9394557,28.5683594 59.4316406,28.5683594 C58.9433569,28.5683594 58.4794944,28.4707041 58.0400391,28.2753906 C57.6005837,28.0800771 57.2148454,27.8164079 56.8828125,27.484375 C56.5507796,27.1523421 56.2919931,26.7666038 56.1064453,26.3271484 C55.9208975,25.8876931 55.828125,25.414065 55.828125,24.90625 Z M96.7851562,53.6757812 C96.7851562,53.1679662 96.8828115,52.6943381 97.078125,52.2548828 C97.2734385,51.8154275 97.5371077,51.4345719 97.8691406,51.1123047 C98.2011735,50.7900375 98.5869119,50.531251 99.0263672,50.3359375 C99.4658225,50.140624 99.9394506,50.0429687 100.447266,50.0429687 C100.955081,50.0429687 101.428709,50.140624 101.868164,50.3359375 C102.307619,50.531251 102.688475,50.7900375 103.010742,51.1123047 C103.333009,51.4345719 103.591796,51.8154275 103.787109,52.2548828 C103.982423,52.6943381 104.080078,53.1679662 104.080078,53.6757812 C104.080078,54.1640649 103.982423,54.6279275 103.787109,55.0673828 C103.591796,55.5068381 103.333009,55.8925765 103.010742,56.2246094 C102.688475,56.5566423 102.307619,56.8154288 101.868164,57.0009766 C101.428709,57.1865244 100.955081,57.2792969 100.447266,57.2792969 C99.9394506,57.2792969 99.4658225,57.1865244 99.0263672,57.0009766 C98.5869119,56.8154288 98.2011735,56.5566423 97.8691406,56.2246094 C97.5371077,55.8925765 97.2734385,55.5068381 97.078125,55.0673828 C96.8828115,54.6279275 96.7851562,54.1640649 96.7851562,53.6757812 Z M111.023438,24.90625 C111.023438,24.398435 111.121093,23.9296896 111.316406,23.5 C111.51172,23.0703104 111.770506,22.6943375 112.092773,22.3720703 C112.415041,22.0498031 112.800779,21.7958994 113.25,21.6103516 C113.699221,21.4248038 114.167966,21.3320312 114.65625,21.3320312 C115.164065,21.3320312 115.642576,21.4248038 116.091797,21.6103516 C116.541018,21.7958994 116.926756,22.0498031 117.249023,22.3720703 C117.571291,22.6943375 117.825194,23.0703104 118.010742,23.5 C118.19629,23.9296896 118.289062,24.398435 118.289062,24.90625 C118.289062,25.414065 118.19629,25.8876931 118.010742,26.3271484 C117.825194,26.7666038 117.571291,27.1523421 117.249023,27.484375 C116.926756,27.8164079 116.541018,28.0800771 116.091797,28.2753906 C115.642576,28.4707041 115.164065,28.5683594 114.65625,28.5683594 C114.167966,28.5683594 113.699221,28.4707041 113.25,28.2753906 C112.800779,28.0800771 112.415041,27.8164079 112.092773,27.484375 C111.770506,27.1523421 111.51172,26.7666038 111.316406,26.3271484 C111.121093,25.8876931 111.023438,25.414065 111.023438,24.90625 Z M96.84375,39.3203125 C96.84375,38.8124975 96.9365225,38.3388694 97.1220703,37.8994141 C97.3076181,37.4599587 97.5664046,37.0791032 97.8984375,36.7568359 C98.2304704,36.4345687 98.6162087,36.180665 99.0556641,35.9951172 C99.4951194,35.8095694 99.9589819,35.7167969 100.447266,35.7167969 C100.955081,35.7167969 101.428709,35.8095694 101.868164,35.9951172 C102.307619,36.180665 102.693358,36.4345687 103.025391,36.7568359 C103.357424,37.0791032 103.621093,37.4599587 103.816406,37.8994141 C104.01172,38.3388694 104.109375,38.8124975 104.109375,39.3203125 C104.109375,39.8281275 104.01172,40.3017556 103.816406,40.7412109 C103.621093,41.1806663 103.357424,41.5664046 103.025391,41.8984375 C102.693358,42.2304704 102.307619,42.4892569 101.868164,42.6748047 C101.428709,42.8603525 100.955081,42.953125 100.447266,42.953125 C99.9589819,42.953125 99.4951194,42.8603525 99.0556641,42.6748047 C98.6162087,42.4892569 98.2304704,42.2304704 97.8984375,41.8984375 C97.5664046,41.5664046 97.3076181,41.1806663 97.1220703,40.7412109 C96.9365225,40.3017556 96.84375,39.8281275 96.84375,39.3203125 Z M152.039062,53.6757812 C152.039062,53.1679662 152.136718,52.6943381 152.332031,52.2548828 C152.527345,51.8154275 152.786131,51.4345719 153.108398,51.1123047 C153.430666,50.7900375 153.816404,50.531251 154.265625,50.3359375 C154.714846,50.140624 155.183591,50.0429687 155.671875,50.0429687 C156.17969,50.0429687 156.658201,50.140624 157.107422,50.3359375 C157.556643,50.531251 157.942381,50.7900375 158.264648,51.1123047 C158.586916,51.4345719 158.840819,51.8154275 159.026367,52.2548828 C159.211915,52.6943381 159.304688,53.1679662 159.304688,53.6757812 C159.304688,54.1640649 159.211915,54.6279275 159.026367,55.0673828 C158.840819,55.5068381 158.586916,55.8925765 158.264648,56.2246094 C157.942381,56.5566423 157.556643,56.8154288 157.107422,57.0009766 C156.658201,57.1865244 156.17969,57.2792969 155.671875,57.2792969 C155.183591,57.2792969 154.714846,57.1865244 154.265625,57.0009766 C153.816404,56.8154288 153.430666,56.5566423 153.108398,56.2246094 C152.786131,55.8925765 152.527345,55.5068381 152.332031,55.0673828 C152.136718,54.6279275 152.039062,54.1640649 152.039062,53.6757812 Z M137.800781,53.6757812 C137.800781,53.1679662 137.898437,52.6943381 138.09375,52.2548828 C138.289063,51.8154275 138.552733,51.4345719 138.884766,51.1123047 C139.216799,50.7900375 139.602537,50.531251 140.041992,50.3359375 C140.481448,50.140624 140.955076,50.0429687 141.462891,50.0429687 C141.970706,50.0429687 142.444334,50.140624 142.883789,50.3359375 C143.323244,50.531251 143.7041,50.7900375 144.026367,51.1123047 C144.348634,51.4345719 144.607421,51.8154275 144.802734,52.2548828 C144.998048,52.6943381 145.095703,53.1679662 145.095703,53.6757812 C145.095703,54.1640649 144.998048,54.6279275 144.802734,55.0673828 C144.607421,55.5068381 144.348634,55.8925765 144.026367,56.2246094 C143.7041,56.5566423 143.323244,56.8154288 142.883789,57.0009766 C142.444334,57.1865244 141.970706,57.2792969 141.462891,57.2792969 C140.955076,57.2792969 140.481448,57.1865244 140.041992,57.0009766 C139.602537,56.8154288 139.216799,56.5566423 138.884766,56.2246094 C138.552733,55.8925765 138.289063,55.5068381 138.09375,55.0673828 C137.898437,54.6279275 137.800781,54.1640649 137.800781,53.6757812 Z M137.859375,24.90625 C137.859375,24.398435 137.952148,23.9296896 138.137695,23.5 C138.323243,23.0703104 138.58203,22.6943375 138.914062,22.3720703 C139.246095,22.0498031 139.631834,21.7958994 140.071289,21.6103516 C140.510744,21.4248038 140.974607,21.3320312 141.462891,21.3320312 C141.970706,21.3320312 142.444334,21.4248038 142.883789,21.6103516 C143.323244,21.7958994 143.708983,22.0498031 144.041016,22.3720703 C144.373049,22.6943375 144.636718,23.0703104 144.832031,23.5 C145.027345,23.9296896 145.125,24.398435 145.125,24.90625 C145.125,25.414065 145.027345,25.8876931 144.832031,26.3271484 C144.636718,26.7666038 144.373049,27.1523421 144.041016,27.484375 C143.708983,27.8164079 143.323244,28.0800771 142.883789,28.2753906 C142.444334,28.4707041 141.970706,28.5683594 141.462891,28.5683594 C140.974607,28.5683594 140.510744,28.4707041 140.071289,28.2753906 C139.631834,28.0800771 139.246095,27.8164079 138.914062,27.484375 C138.58203,27.1523421 138.323243,26.7666038 138.137695,26.3271484 C137.952148,25.8876931 137.859375,25.414065 137.859375,24.90625 Z M152.039062,24.90625 C152.039062,24.398435 152.136718,23.9296896 152.332031,23.5 C152.527345,23.0703104 152.786131,22.6943375 153.108398,22.3720703 C153.430666,22.0498031 153.816404,21.7958994 154.265625,21.6103516 C154.714846,21.4248038 155.183591,21.3320312 155.671875,21.3320312 C156.17969,21.3320312 156.658201,21.4248038 157.107422,21.6103516 C157.556643,21.7958994 157.942381,22.0498031 158.264648,22.3720703 C158.586916,22.6943375 158.840819,23.0703104 159.026367,23.5 C159.211915,23.9296896 159.304688,24.398435 159.304688,24.90625 C159.304688,25.414065 159.211915,25.8876931 159.026367,26.3271484 C158.840819,26.7666038 158.586916,27.1523421 158.264648,27.484375 C157.942381,27.8164079 157.556643,28.0800771 157.107422,28.2753906 C156.658201,28.4707041 156.17969,28.5683594 155.671875,28.5683594 C155.183591,28.5683594 154.714846,28.4707041 154.265625,28.2753906 C153.816404,28.0800771 153.430666,27.8164079 153.108398,27.484375 C152.786131,27.1523421 152.527345,26.7666038 152.332031,26.3271484 C152.136718,25.8876931 152.039062,25.414065 152.039062,24.90625 Z M151.980469,39.2324219 C151.980469,38.7246068 152.078124,38.2509788 152.273438,37.8115234 C152.468751,37.3720681 152.73242,36.9912125 153.064453,36.6689453 C153.396486,36.3466781 153.787107,36.0927744 154.236328,35.9072266 C154.685549,35.7216788 155.154294,35.6289062 155.642578,35.6289062 C156.150393,35.6289062 156.624021,35.7216788 157.063477,35.9072266 C157.502932,36.0927744 157.883787,36.3466781 158.206055,36.6689453 C158.528322,36.9912125 158.787108,37.3720681 158.982422,37.8115234 C159.177735,38.2509788 159.275391,38.7246068 159.275391,39.2324219 C159.275391,39.7402369 159.177735,40.213865 158.982422,40.6533203 C158.787108,41.0927756 158.528322,41.4736312 158.206055,41.7958984 C157.883787,42.1181657 157.502932,42.3720694 157.063477,42.5576172 C156.624021,42.743165 156.150393,42.8359375 155.642578,42.8359375 C155.154294,42.8359375 154.685549,42.743165 154.236328,42.5576172 C153.787107,42.3720694 153.396486,42.1181657 153.064453,41.7958984 C152.73242,41.4736312 152.468751,41.0927756 152.273438,40.6533203 C152.078124,40.213865 151.980469,39.7402369 151.980469,39.2324219 Z M35.2617188,134.675781 C35.2617188,134.167966 35.359374,133.694338 35.5546875,133.254883 C35.750001,132.815427 36.0136702,132.434572 36.3457031,132.112305 C36.677736,131.790037 37.0634744,131.531251 37.5029297,131.335938 C37.942385,131.140624 38.4160131,131.042969 38.9238281,131.042969 C39.4316432,131.042969 39.9052712,131.140624 40.3447266,131.335938 C40.7841819,131.531251 41.1650375,131.790037 41.4873047,132.112305 C41.8095719,132.434572 42.0683584,132.815427 42.2636719,133.254883 C42.4589854,133.694338 42.5566406,134.167966 42.5566406,134.675781 C42.5566406,135.164065 42.4589854,135.627927 42.2636719,136.067383 C42.0683584,136.506838 41.8095719,136.892576 41.4873047,137.224609 C41.1650375,137.556642 40.7841819,137.815429 40.3447266,138.000977 C39.9052712,138.186524 39.4316432,138.279297 38.9238281,138.279297 C38.4160131,138.279297 37.942385,138.186524 37.5029297,138.000977 C37.0634744,137.815429 36.677736,137.556642 36.3457031,137.224609 C36.0136702,136.892576 35.750001,136.506838 35.5546875,136.067383 C35.359374,135.627927 35.2617188,135.164065 35.2617188,134.675781 Z M35.3203125,105.90625 C35.3203125,105.398435 35.413085,104.92969 35.5986328,104.5 C35.7841806,104.07031 36.0429671,103.694338 36.375,103.37207 C36.7070329,103.049803 37.0927712,102.795899 37.5322266,102.610352 C37.9716819,102.424804 38.4355444,102.332031 38.9238281,102.332031 C39.4316432,102.332031 39.9052712,102.424804 40.3447266,102.610352 C40.7841819,102.795899 41.1699202,103.049803 41.5019531,103.37207 C41.833986,103.694338 42.0976553,104.07031 42.2929688,104.5 C42.4882822,104.92969 42.5859375,105.398435 42.5859375,105.90625 C42.5859375,106.414065 42.4882822,106.887693 42.2929688,107.327148 C42.0976553,107.766604 41.833986,108.152342 41.5019531,108.484375 C41.1699202,108.816408 40.7841819,109.080077 40.3447266,109.275391 C39.9052712,109.470704 39.4316432,109.568359 38.9238281,109.568359 C38.4355444,109.568359 37.9716819,109.470704 37.5322266,109.275391 C37.0927712,109.080077 36.7070329,108.816408 36.375,108.484375 C36.0429671,108.152342 35.7841806,107.766604 35.5986328,107.327148 C35.413085,106.887693 35.3203125,106.414065 35.3203125,105.90625 Z M49.5,105.90625 C49.5,105.398435 49.5976553,104.92969 49.7929688,104.5 C49.9882822,104.07031 50.2470687,103.694338 50.5693359,103.37207 C50.8916032,103.049803 51.2773415,102.795899 51.7265625,102.610352 C52.1757835,102.424804 52.6445288,102.332031 53.1328125,102.332031 C53.6406275,102.332031 54.1191384,102.424804 54.5683594,102.610352 C55.0175804,102.795899 55.4033187,103.049803 55.7255859,103.37207 C56.0478532,103.694338 56.3017569,104.07031 56.4873047,104.5 C56.6728525,104.92969 56.765625,105.398435 56.765625,105.90625 C56.765625,106.414065 56.6728525,106.887693 56.4873047,107.327148 C56.3017569,107.766604 56.0478532,108.152342 55.7255859,108.484375 C55.4033187,108.816408 55.0175804,109.080077 54.5683594,109.275391 C54.1191384,109.470704 53.6406275,109.568359 53.1328125,109.568359 C52.6445288,109.568359 52.1757835,109.470704 51.7265625,109.275391 C51.2773415,109.080077 50.8916032,108.816408 50.5693359,108.484375 C50.2470687,108.152342 49.9882822,107.766604 49.7929688,107.327148 C49.5976553,106.887693 49.5,106.414065 49.5,105.90625 Z M49.4414062,120.232422 C49.4414062,119.724607 49.5390615,119.250979 49.734375,118.811523 C49.9296885,118.372068 50.1933577,117.991213 50.5253906,117.668945 C50.8574235,117.346678 51.2480446,117.092774 51.6972656,116.907227 C52.1464866,116.721679 52.6152319,116.628906 53.1035156,116.628906 C53.6113307,116.628906 54.0849587,116.721679 54.5244141,116.907227 C54.9638694,117.092774 55.344725,117.346678 55.6669922,117.668945 C55.9892594,117.991213 56.2480459,118.372068 56.4433594,118.811523 C56.6386729,119.250979 56.7363281,119.724607 56.7363281,120.232422 C56.7363281,120.740237 56.6386729,121.213865 56.4433594,121.65332 C56.2480459,122.092776 55.9892594,122.473631 55.6669922,122.795898 C55.344725,123.118166 54.9638694,123.372069 54.5244141,123.557617 C54.0849587,123.743165 53.6113307,123.835938 53.1035156,123.835938 C52.6152319,123.835938 52.1464866,123.743165 51.6972656,123.557617 C51.2480446,123.372069 50.8574235,123.118166 50.5253906,122.795898 C50.1933577,122.473631 49.9296885,122.092776 49.734375,121.65332 C49.5390615,121.213865 49.4414062,120.740237 49.4414062,120.232422 Z M76.3359375,105.90625 C76.3359375,105.398435 76.42871,104.92969 76.6142578,104.5 C76.7998056,104.07031 77.0585921,103.694338 77.390625,103.37207 C77.7226579,103.049803 78.1083962,102.795899 78.5478516,102.610352 C78.9873069,102.424804 79.4511694,102.332031 79.9394531,102.332031 C80.4472682,102.332031 80.9208962,102.424804 81.3603516,102.610352 C81.7998069,102.795899 82.1855452,103.049803 82.5175781,103.37207 C82.849611,103.694338 83.1132803,104.07031 83.3085938,104.5 C83.5039072,104.92969 83.6015625,105.398435 83.6015625,105.90625 C83.6015625,106.414065 83.5039072,106.887693 83.3085938,107.327148 C83.1132803,107.766604 82.849611,108.152342 82.5175781,108.484375 C82.1855452,108.816408 81.7998069,109.080077 81.3603516,109.275391 C80.9208962,109.470704 80.4472682,109.568359 79.9394531,109.568359 C79.4511694,109.568359 78.9873069,109.470704 78.5478516,109.275391 C78.1083962,109.080077 77.7226579,108.816408 77.390625,108.484375 C77.0585921,108.152342 76.7998056,107.766604 76.6142578,107.327148 C76.42871,106.887693 76.3359375,106.414065 76.3359375,105.90625 Z M131.53125,134.675781 C131.53125,134.167966 131.628905,133.694338 131.824219,133.254883 C132.019532,132.815427 132.278319,132.434572 132.600586,132.112305 C132.922853,131.790037 133.308592,131.531251 133.757812,131.335938 C134.207033,131.140624 134.675779,131.042969 135.164062,131.042969 C135.671878,131.042969 136.150388,131.140624 136.599609,131.335938 C137.04883,131.531251 137.434569,131.790037 137.756836,132.112305 C138.079103,132.434572 138.333007,132.815427 138.518555,133.254883 C138.704102,133.694338 138.796875,134.167966 138.796875,134.675781 C138.796875,135.164065 138.704102,135.627927 138.518555,136.067383 C138.333007,136.506838 138.079103,136.892576 137.756836,137.224609 C137.434569,137.556642 137.04883,137.815429 136.599609,138.000977 C136.150388,138.186524 135.671878,138.279297 135.164062,138.279297 C134.675779,138.279297 134.207033,138.186524 133.757812,138.000977 C133.308592,137.815429 132.922853,137.556642 132.600586,137.224609 C132.278319,136.892576 132.019532,136.506838 131.824219,136.067383 C131.628905,135.627927 131.53125,135.164065 131.53125,134.675781 Z M117.292969,134.675781 C117.292969,134.167966 117.390624,133.694338 117.585938,133.254883 C117.781251,132.815427 118.04492,132.434572 118.376953,132.112305 C118.708986,131.790037 119.094724,131.531251 119.53418,131.335938 C119.973635,131.140624 120.447263,131.042969 120.955078,131.042969 C121.462893,131.042969 121.936521,131.140624 122.375977,131.335938 C122.815432,131.531251 123.196287,131.790037 123.518555,132.112305 C123.840822,132.434572 124.099608,132.815427 124.294922,133.254883 C124.490235,133.694338 124.587891,134.167966 124.587891,134.675781 C124.587891,135.164065 124.490235,135.627927 124.294922,136.067383 C124.099608,136.506838 123.840822,136.892576 123.518555,137.224609 C123.196287,137.556642 122.815432,137.815429 122.375977,138.000977 C121.936521,138.186524 121.462893,138.279297 120.955078,138.279297 C120.447263,138.279297 119.973635,138.186524 119.53418,138.000977 C119.094724,137.815429 118.708986,137.556642 118.376953,137.224609 C118.04492,136.892576 117.781251,136.506838 117.585938,136.067383 C117.390624,135.627927 117.292969,135.164065 117.292969,134.675781 Z M117.351562,105.90625 C117.351562,105.398435 117.444335,104.92969 117.629883,104.5 C117.815431,104.07031 118.074217,103.694338 118.40625,103.37207 C118.738283,103.049803 119.124021,102.795899 119.563477,102.610352 C120.002932,102.424804 120.466794,102.332031 120.955078,102.332031 C121.462893,102.332031 121.936521,102.424804 122.375977,102.610352 C122.815432,102.795899 123.20117,103.049803 123.533203,103.37207 C123.865236,103.694338 124.128905,104.07031 124.324219,104.5 C124.519532,104.92969 124.617188,105.398435 124.617188,105.90625 C124.617188,106.414065 124.519532,106.887693 124.324219,107.327148 C124.128905,107.766604 123.865236,108.152342 123.533203,108.484375 C123.20117,108.816408 122.815432,109.080077 122.375977,109.275391 C121.936521,109.470704 121.462893,109.568359 120.955078,109.568359 C120.466794,109.568359 120.002932,109.470704 119.563477,109.275391 C119.124021,109.080077 118.738283,108.816408 118.40625,108.484375 C118.074217,108.152342 117.815431,107.766604 117.629883,107.327148 C117.444335,106.887693 117.351562,106.414065 117.351562,105.90625 Z M131.472656,120.232422 C131.472656,119.724607 131.570312,119.250979 131.765625,118.811523 C131.960938,118.372068 132.224608,117.991213 132.556641,117.668945 C132.888674,117.346678 133.279295,117.092774 133.728516,116.907227 C134.177737,116.721679 134.646482,116.628906 135.134766,116.628906 C135.642581,116.628906 136.116209,116.721679 136.555664,116.907227 C136.995119,117.092774 137.375975,117.346678 137.698242,117.668945 C138.020509,117.991213 138.279296,118.372068 138.474609,118.811523 C138.669923,119.250979 138.767578,119.724607 138.767578,120.232422 C138.767578,120.740237 138.669923,121.213865 138.474609,121.65332 C138.279296,122.092776 138.020509,122.473631 137.698242,122.795898 C137.375975,123.118166 136.995119,123.372069 136.555664,123.557617 C136.116209,123.743165 135.642581,123.835938 135.134766,123.835938 C134.646482,123.835938 134.177737,123.743165 133.728516,123.557617 C133.279295,123.372069 132.888674,123.118166 132.556641,122.795898 C132.224608,122.473631 131.960938,122.092776 131.765625,121.65332 C131.570312,121.213865 131.472656,120.740237 131.472656,120.232422 Z" id="⠑⠁⠎⠽-⠝⠁⠵"></path>
                <path d="M20.78,92.5 C25.04,93.58 28.88,92.26 32.48,90.1 C32.78,89.92 32.9,89.02 32.72,88.66 C32.54,88.3 31.88,88.06 31.4,88 C29.72,87.82 28.28,88.72 26.72,89.08 C21.92,90.22 20.66,89.44 19.52,84.64 C19.46,84.46 19.46,84.28 19.4,84.1 C18.56,79.72 19.16,78.88 23.6,78.1 C24.86,77.92 26.18,77.98 27.08,76.96 C27.26,76.72 27.38,76.3 27.32,76 C27.32,75.7 27.08,75.34 26.78,75.22 C25.1,74.38 23.3,75.04 21.5,75.04 C20,75.04 19.46,74.56 19.52,73.18 C19.52,71.74 19.64,70.3 19.94,68.92 C20.3,66.76 20.6,66.52 22.64,66.34 C23.9,66.22 25.16,66.28 26.36,66.04 C26.78,65.98 27.26,65.32 27.38,64.9 C27.56,64.12 27.02,63.46 26.3,63.34 C23.78,63.1 21.32,62.8 18.8,62.8 C17.9,62.74 17.24,63.58 17.12,64.6 C15.92,75.22 14.6,81.94 17.78,89.56 C18.38,90.88 19.28,92.14 20.78,92.5 Z M37.88,93.28 C36.68,93.22 36.56,92.26 36.38,91.36 L36.38,90.64 C36.56,89.44 36.62,88 36.92,86.62 C38.18,80.86 39.56,75.1 40.82,69.34 C41.3,67.42 42.02,65.62 43.28,64.06 C45.32,61.6 47.84,61.84 49.16,64.72 C49.94,66.34 50.48,68.08 50.84,69.82 C52.28,76.48 53.6,83.2 54.98,89.92 C54.98,90.1 55.04,90.28 55.04,90.4 C55.16,91.36 55.16,92.2 54.14,92.68 C53.3,93.1 52.22,92.38 51.86,91 C51.44,89.44 51.14,87.88 50.78,86.26 C50.24,84.1 50.18,83.98 47.9,83.98 C41.06,83.92 40.4,83.26 39.68,90.46 C39.62,91 39.5,91.54 39.32,92.02 C39.08,92.74 38.66,93.34 37.88,93.28 Z M45.8,80.68 L45.8,80.62 L47.96,80.62 C49.1,80.5 49.46,79.78 49.28,78.76 C48.62,75.22 47.84,71.74 47.06,68.2 C46.94,67.72 46.7,67.24 46.04,67.12 C45.38,67.06 45.08,67.48 44.9,67.96 C43.4,71.62 42.74,75.46 42.2,79.36 C42.14,79.96 42.62,80.44 43.1,80.5 C44,80.68 44.9,80.62 45.8,80.68 Z M60.92,92.68 C65.42,94.24 67.82,90.64 67.58,87.52 C67.4,85.54 66.8,83.8 65.96,82.06 C65.06,80.26 64.16,78.4 63.2,76.6 C62.36,74.86 61.94,73 62,71.86 C62.06,70.42 62.12,69.82 62.18,69.22 C62.24,68.86 62.36,68.5 62.42,68.08 C62.84,66.64 63.68,66.22 65.3,66.76 C65.6,66.82 65.9,67.12 66.26,67.18 C67.4,67.36 68.36,66.22 68.12,64.96 C67.76,63.52 66.92,62.68 65.6,62.38 C62.96,61.84 60.14,63.82 59.36,67 C58.4,70.72 58.34,74.44 60.02,77.8 C61.16,80.2 62.36,82.48 63.44,84.88 C64.7,87.76 64.52,88.18 61.52,89.98 C61.22,90.16 60.92,90.46 60.62,90.7 C60.14,91.12 60.38,92.5 60.92,92.68 Z M80.84,93.04 C81.62,92.74 81.8,92.08 81.8,91.3 C81.74,90.82 81.5,90.28 81.44,89.74 C80.96,86.5 81.38,80.08 82.88,77.02 C84.86,73 86.18,68.68 87.8,64.48 C88.22,63.4 87.68,62.14 86.72,61.84 C85.64,61.54 84.98,62.14 84.62,62.98 C83.9,64.84 83.3,66.76 82.64,68.62 C82.04,70.3 81.38,71.98 80.66,73.6 C80.48,74.02 79.88,74.38 79.4,73.78 C78.86,73.12 78.44,72.34 78.02,71.56 L75.2,65.8 C74.78,65.02 74.18,64.36 73.16,64.24 C72.62,64.24 72.2,64.54 71.96,65.02 C71.6,65.74 71.84,66.46 72.14,67.06 C73.58,69.94 74.9,72.88 76.46,75.64 C77.72,77.68 78.26,79.78 78.02,82.24 C77.84,84.34 77.78,89.92 78.8,91.9 C79.22,92.74 79.76,93.46 80.84,93.04 Z M94.16,93.64 C94.58,93.46 95,92.92 95.3,92.44 C95.48,92.14 95.42,91.6 95.36,91.24 C94.52,86.86 94.76,82.42 94.7,77.98 C94.7,77.32 94.7,76.72 94.76,76.06 C94.82,75.76 95.06,75.28 95.3,75.22 C95.54,75.16 95.96,75.46 96.08,75.7 C97.94,79.6 99.62,83.56 101.66,87.28 C102.62,89.14 103.7,91.9 106.1,91 C108.26,90.22 108.38,87.34 108.56,85.06 C108.8,81.1 108.8,77.08 108.68,73.06 C108.56,70.12 108.2,67.18 107.9,64.24 C107.78,63.4 107.42,62.62 106.52,62.62 C105.44,62.62 104.96,63.64 104.96,64.72 C104.9,66.4 105.14,68.08 105.2,69.76 C105.32,73.54 105.5,77.32 105.56,81.16 C105.56,82.3 105.92,83.98 104.48,84.28 C103.52,84.52 103.16,83.14 102.74,82.24 C101,78.34 99.14,74.44 98.06,70.18 C97.52,67.96 96.8,65.74 95.54,63.88 C94.76,62.74 93.02,62.68 92.18,63.76 C91.64,64.42 91.52,65.2 91.52,66.04 C91.52,74.02 91.58,76.3 91.64,88.24 C91.64,89.92 91.94,91.6 92.78,93.04 C93.14,93.7 93.68,93.82 94.16,93.64 Z M113.84,93.28 C112.64,93.22 112.52,92.26 112.34,91.36 L112.34,90.64 C112.52,89.44 112.58,88 112.88,86.62 C114.14,80.86 115.52,75.1 116.78,69.34 C117.26,67.42 117.98,65.62 119.24,64.06 C121.28,61.6 123.8,61.84 125.12,64.72 C125.9,66.34 126.44,68.08 126.8,69.82 C128.24,76.48 129.56,83.2 130.94,89.92 C130.94,90.1 131,90.28 131,90.4 C131.12,91.36 131.12,92.2 130.1,92.68 C129.26,93.1 128.18,92.38 127.82,91 C127.4,89.44 127.1,87.88 126.74,86.26 C126.2,84.1 126.14,83.98 123.86,83.98 C117.02,83.92 116.36,83.26 115.64,90.46 C115.58,91 115.46,91.54 115.28,92.02 C115.04,92.74 114.62,93.34 113.84,93.28 Z M121.76,80.68 L121.76,80.62 L123.92,80.62 C125.06,80.5 125.42,79.78 125.24,78.76 C124.58,75.22 123.8,71.74 123.02,68.2 C122.9,67.72 122.66,67.24 122,67.12 C121.34,67.06 121.04,67.48 120.86,67.96 C119.36,71.62 118.7,75.46 118.16,79.36 C118.1,79.96 118.58,80.44 119.06,80.5 C119.96,80.68 120.86,80.62 121.76,80.68 Z M136.7,93.28 C141.2,93.28 146.18,92.98 149.9,92.98 C150.56,92.74 151.1,92.14 150.98,91.3 C150.98,88.66 140.42,91 140.12,89.26 C139.58,88.54 142.16,85.36 142.58,84.58 C143.96,82.06 145.34,79.54 146.84,77.08 C148.28,74.62 149.96,72.28 151.46,69.88 C152.12,68.8 153.14,66.58 153.56,65.38 C153.86,64.3 153.14,63.16 152.06,62.86 C149.54,62.14 138.5,62.56 138.2,62.56 C137.72,62.62 137.12,62.92 137.24,63.58 C137.3,64.06 137.48,65.32 137.84,65.56 C142.7,65.56 147.98,65.5 148.64,66.22 C149.78,67.9 147.08,70.42 146.3,71.92 C145.7,73 144.86,73.96 144.2,75.04 C141.74,79.42 137.36,85.96 134.96,90.34 C134.12,91.84 134.9,93.16 136.7,93.28 Z" id="easynaz"></path>
            </g>
        </g>
    </g>
</svg>